<svg width="24" height="24" viewBox="0 0 24 24" fill="none" xmlns="http://www.w3.org/2000/svg">
<g clip-path="url(#clip0_394_42)">
<path d="M10.7314 20.3313C10.4314 20.6313 10.0245 20.7998 9.6002 20.7998C9.17593 20.7998 8.76904 20.6313 8.469 20.3313L1.26899 13.1313C0.969041 12.8313 0.800536 12.4244 0.800536 12.0001C0.800536 11.5759 0.969041 11.169 1.26899 10.8689L8.46899 3.66895C8.77076 3.37749 9.17492 3.21622 9.59443 3.21987C10.0139 3.22351 10.4153 3.39178 10.7119 3.68844C11.0086 3.98509 11.1768 4.38639 11.1805 4.80591C11.1841 5.22542 11.0228 5.62958 10.7314 5.93135L6.40019 10.4001L21.6002 10.4001C22.0245 10.4001 22.4315 10.5687 22.7316 10.8688C23.0316 11.1688 23.2002 11.5758 23.2002 12.0001C23.2002 12.4245 23.0316 12.8315 22.7316 13.1315C22.4315 13.4316 22.0245 13.6001 21.6002 13.6001L6.40019 13.6001L10.7314 18.0689C11.0313 18.369 11.1999 18.7759 11.1999 19.2001C11.1999 19.6244 11.0313 20.0313 10.7314 20.3313Z" fill="#1B2438"/>
</g>
<defs>
<clipPath id="clip0_394_42">
<rect width="24" height="24" fill="white" transform="translate(24 24) rotate(180)"/>
</clipPath>
</defs>
</svg>
