<svg width="24" height="24" viewBox="0 0 24 24" fill="none" xmlns="http://www.w3.org/2000/svg">
<g clip-path="url(#clip0_388_33)">
<path d="M18 2C18.5304 2 19.0391 2.21071 19.4142 2.58579C19.7893 2.96086 20 3.46957 20 4V20C20 20.5304 19.7893 21.0391 19.4142 21.4142C19.0391 21.7893 18.5304 22 18 22H6C5.46957 22 4.96086 21.7893 4.58579 21.4142C4.21071 21.0391 4 20.5304 4 20V4C4 3.46957 4.21071 2.96086 4.58579 2.58579C4.96086 2.21071 5.46957 2 6 2H18ZM12 13H9C8.73478 13 8.48043 13.1054 8.29289 13.2929C8.10536 13.4804 8 13.7348 8 14C8 14.2652 8.10536 14.5196 8.29289 14.7071C8.48043 14.8946 8.73478 15 9 15H12C12.2652 15 12.5196 14.8946 12.7071 14.7071C12.8946 14.5196 13 14.2652 13 14C13 13.7348 12.8946 13.4804 12.7071 13.2929C12.5196 13.1054 12.2652 13 12 13ZM15 8H9C8.74512 8.00028 8.49997 8.09788 8.31463 8.27285C8.1293 8.44782 8.01776 8.68695 8.00283 8.94139C7.98789 9.19584 8.07067 9.44638 8.23426 9.64183C8.39785 9.83729 8.6299 9.9629 8.883 9.993L9 10H15C15.2549 9.99972 15.5 9.90212 15.6854 9.72715C15.8707 9.55218 15.9822 9.31305 15.9972 9.05861C16.0121 8.80416 15.9293 8.55362 15.7657 8.35817C15.6021 8.16271 15.3701 8.0371 15.117 8.007L15 8Z" fill="#1B2438"/>
</g>
<defs>
<clipPath id="clip0_388_33">
<rect width="24" height="24" fill="white"/>
</clipPath>
</defs>
</svg>
